<?xml version="1.0" encoding="iso-8859-1"?>
<!-- Generator: Adobe Illustrator 19.0.0, SVG Export Plug-In . SVG Version: 6.00 Build 0)  -->
<svg version="1.1" id="Capa_1" xmlns="http://www.w3.org/2000/svg" xmlns:xlink="http://www.w3.org/1999/xlink" x="0px" y="0px"
	 viewBox="0 0 512.001 512.001" style="enable-background:new 0 0 512.001 512.001;" xml:space="preserve">
<path style="fill:#E6E7E8;" d="M362.639,110.926H260.245V8.533H21.328v494.9h341.311V110.926z"/>
<g>
	<rect x="413.835" y="85.328" style="fill:#FFAF46;" width="51.197" height="341.311"/>
	<polygon style="fill:#FFAF46;" points="439.434,503.433 465.032,426.638 413.835,426.638 	"/>
	<rect x="413.835" y="8.533" style="fill:#FFAF46;" width="51.197" height="76.795"/>
</g>
<polygon style="fill:#E6E7E8;" points="362.639,110.926 260.245,8.533 260.245,110.926 "/>
<g>
	<path style="fill:#231F20;" d="M490.63,76.795h-17.066V8.533c0-4.71-3.823-8.533-8.533-8.533h-51.197
		c-4.71,0-8.533,3.823-8.533,8.533v418.105c0,0.077,0.043,0.145,0.043,0.23c0.009,0.836,0.145,1.672,0.401,2.466l25.598,76.795
		c1.468,4.48,6.297,6.912,10.768,5.444c2.577-0.845,4.599-2.867,5.444-5.444l25.598-76.795c0.256-0.794,0.393-1.63,0.41-2.466
		c0-0.085,0.043-0.154,0.043-0.23V93.86h8.533v127.991c0,4.71,3.823,8.533,8.533,8.533c4.71,0,8.533-3.823,8.533-8.533V85.328
		c0-4.71-3.823-8.533-8.533-8.533C490.656,76.795,490.639,76.795,490.63,76.795z M456.499,418.105h-34.131V93.86h34.131V418.105z
		 M422.368,17.066h34.131v59.729h-34.131V17.066z M439.434,476.453l-13.755-41.282h27.51L439.434,476.453z"/>
	<path style="fill:#231F20;" d="M370.625,108.187c-0.094-0.273-0.162-0.529-0.282-0.794c-0.418-0.93-0.99-1.775-1.707-2.5
		L266.244,2.5c-0.717-0.717-1.562-1.297-2.492-1.707c-0.273-0.128-0.546-0.196-0.853-0.299c-0.691-0.239-1.416-0.375-2.15-0.427
		C260.612,0.102,260.442,0,260.245,0H21.328c-4.71,0-8.533,3.823-8.533,8.533v494.9c0,4.71,3.823,8.533,8.533,8.533h341.311
		c4.71,0,8.533-3.823,8.533-8.533V110.926c0-0.179-0.094-0.341-0.102-0.52C371.018,109.646,370.864,108.904,370.625,108.187z
		 M342.041,102.393h-73.262V29.131L342.041,102.393z M29.861,494.9V17.066h221.852v93.86c0,4.71,3.823,8.533,8.533,8.533h93.86
		V494.9H29.861z"/>
	<path style="fill:#231F20;" d="M311.442,170.655H72.294c-4.71,0-8.533,3.823-8.533,8.533s3.823,8.533,8.533,8.533h239.148
		c4.71,0,8.533-3.823,8.533-8.533S316.152,170.655,311.442,170.655z"/>
	<path style="fill:#231F20;" d="M311.442,221.852H72.294c-4.71,0-8.533,3.823-8.533,8.533s3.823,8.533,8.533,8.533h239.148
		c4.71,0,8.533-3.823,8.533-8.533S316.152,221.852,311.442,221.852z"/>
	<path style="fill:#231F20;" d="M311.442,273.048H72.294c-4.71,0-8.533,3.823-8.533,8.533c0,4.71,3.823,8.533,8.533,8.533h239.148
		c4.71,0,8.533-3.823,8.533-8.533C319.975,276.871,316.152,273.048,311.442,273.048z"/>
	<path style="fill:#231F20;" d="M311.442,324.245H72.294c-4.71,0-8.533,3.823-8.533,8.533c0,4.71,3.823,8.533,8.533,8.533h239.148
		c4.71,0,8.533-3.823,8.533-8.533C319.975,328.068,316.152,324.245,311.442,324.245z"/>
</g>
<g>
</g>
<g>
</g>
<g>
</g>
<g>
</g>
<g>
</g>
<g>
</g>
<g>
</g>
<g>
</g>
<g>
</g>
<g>
</g>
<g>
</g>
<g>
</g>
<g>
</g>
<g>
</g>
<g>
</g>
</svg>
