<?xml version="1.0" encoding="iso-8859-1"?>
<!-- Generator: Adobe Illustrator 19.0.0, SVG Export Plug-In . SVG Version: 6.00 Build 0)  -->
<svg version="1.1" id="Capa_1" xmlns="http://www.w3.org/2000/svg" xmlns:xlink="http://www.w3.org/1999/xlink" x="0px" y="0px"
	 viewBox="0 0 480 480" style="enable-background:new 0 0 480 480;" xml:space="preserve">
<path style="fill:#4398D1;" d="M8,40h464v400H8V40z"/>
<path style="fill:#3E8CC7;" d="M64,440h408V40h-24L64,440z"/>
<g>
	<path style="fill:#3570AB;" d="M8,48h64v384H8V48z"/>
	<path style="fill:#3570AB;" d="M408,48h64v384h-64V48z"/>
</g>
<path style="fill:#FDB62F;" d="M184,176v128l112-64L184,176z"/>
<g>
	<path style="fill:#4398D1;" d="M0,440h80V40H0V440z M16,424v-48h48v48H16z M64,184v48H16v-48H64z M16,168v-48h48v48H16z M64,248v48
		H16v-48H64z M64,312v48H16v-48H64z M64,56v48H16V56H64z"/>
	<path style="fill:#4398D1;" d="M400,40v400h80V40H400z M464,56v48h-48V56H464z M416,296v-48h48v48H416z M464,312v48h-48v-48H464z
		 M416,232v-48h48v48H416z M416,168v-48h48v48H416z M416,424v-48h48v48H416z"/>
</g>
<path style="fill:#FFA83D;" d="M184,275.92V304l112-64l-43.712-24.976C231.95,237.888,209.035,258.322,184,275.92z"/>
<path d="M400,40H0v400h480V40H400z M64,56v48H16V56H64z M16,296v-48h48v48H16z M64,312v48H16v-48H64z M16,232v-48h48v48H16z M16,168
	v-48h48v48H16z M16,424v-48h48v48H16z M400,424H80V56h320V424z M416,296v-48h48v48H416z M464,312v48h-48v-48H464z M416,232v-48h48
	v48H416z M416,168v-48h48v48H416z M416,424v-48h48v48H416z M464,56v48h-48V56H464z"/>
<path d="M180,310.92c2.475,1.429,5.525,1.429,8,0l112-64c3.835-2.194,5.165-7.081,2.971-10.917
	c-0.708-1.238-1.734-2.263-2.971-2.971l-112-64c-3.826-2.209-8.719-0.898-10.928,2.928c-0.709,1.228-1.079,2.622-1.072,4.04v128
	C176.003,306.855,177.527,309.492,180,310.92z M192,189.792L279.872,240L192,290.208V189.792z"/>
<g>
</g>
<g>
</g>
<g>
</g>
<g>
</g>
<g>
</g>
<g>
</g>
<g>
</g>
<g>
</g>
<g>
</g>
<g>
</g>
<g>
</g>
<g>
</g>
<g>
</g>
<g>
</g>
<g>
</g>
</svg>
